<svg xmlns="http://www.w3.org/2000/svg" width="16.655" height="16.655" viewBox="0 0 16.655 16.655">
  <path id="iconmonstr-calendar-4" d="M13.879,13.879H11.1V11.1h2.776ZM9.715,6.94H6.94V9.715H9.715Zm4.164,0H11.1V9.715h2.776ZM5.552,11.1H2.776v2.776H5.552Zm4.164,0H6.94v2.776H9.715ZM5.552,6.94H2.776V9.715H5.552Zm11.1-5.552V16.655H0V1.388H2.082v.694a1.388,1.388,0,0,0,2.776,0V1.388H11.8v.694a1.388,1.388,0,0,0,2.776,0V1.388ZM15.267,5.552H1.388v9.715H15.267ZM13.879.694a.694.694,0,1,0-1.388,0V2.082a.694.694,0,1,0,1.388,0ZM4.164,2.082a.694.694,0,0,1-1.388,0V.694a.694.694,0,0,1,1.388,0Z" fill="#fff"/>
</svg>
