<svg xmlns="http://www.w3.org/2000/svg" width="23" height="23" viewBox="0 0 23 23">
  <g id="Group_2520" data-name="Group 2520" transform="translate(-698 -281)">
    <path id="Path_1737" data-name="Path 1737" d="M21.92,33.6a11.5,11.5,0,1,1,8.132-3.368A11.424,11.424,0,0,1,21.92,33.6Zm0-21.472A9.972,9.972,0,1,0,31.892,22.1,9.983,9.983,0,0,0,21.92,12.128Z" transform="translate(687.58 270.4)" fill="#3f3f3f"/>
    <path id="Path_1738" data-name="Path 1738" d="M127.86,128.8a.762.762,0,0,1-.54-.224L115.959,117.22a.764.764,0,0,1,1.081-1.081L128.4,127.5a.764.764,0,0,1-.54,1.3Z" transform="translate(587.265 170.085)" fill="#3f3f3f"/>
    <path id="Path_1739" data-name="Path 1739" d="M116.5,128.8a.764.764,0,0,1-.54-1.3l11.361-11.361a.764.764,0,0,1,1.081,1.081L117.04,128.581A.762.762,0,0,1,116.5,128.8Z" transform="translate(587.265 170.085)" fill="#3f3f3f"/>
  </g>
</svg>
