<svg xmlns="http://www.w3.org/2000/svg" width="99.731" height="89.343" viewBox="0 0 99.731 89.343">
  <g id="Group_2532" data-name="Group 2532" transform="translate(-961.135 -1920.329)">
    <path id="Path_1776" data-name="Path 1776" d="M91.42,118.777H8.311A8.32,8.32,0,0,1,0,110.466v-2.155A8.32,8.32,0,0,1,8.311,100H91.42a8.32,8.32,0,0,1,8.311,8.311v2.155a8.32,8.32,0,0,1-8.311,8.311M8.311,106.234a2.08,2.08,0,0,0-2.078,2.078v2.155a2.08,2.08,0,0,0,2.078,2.078H91.42a2.08,2.08,0,0,0,2.078-2.078v-2.155a2.08,2.08,0,0,0-2.078-2.078Z" transform="translate(961.135 1841.106)" fill="#652f90"/>
    <path id="Path_1777" data-name="Path 1777" d="M112.539,216.393H62.8a8.346,8.346,0,0,1-8.232-7.166L47.77,160.371h79.422l-6.413,48.794a8.334,8.334,0,0,1-8.24,7.228M54.93,166.6l5.808,41.764A2.086,2.086,0,0,0,62.8,210.16h49.743a2.084,2.084,0,0,0,2.06-1.807l5.486-41.749Z" transform="translate(923.289 1793.279)" fill="#652f90"/>
    <path id="Path_1779" data-name="Path 1779" d="M103.112,33.694a3.117,3.117,0,0,1-2.58-4.861l18.546-27.46a3.117,3.117,0,1,1,5.166,3.489L105.7,32.321a3.113,3.113,0,0,1-2.586,1.373" transform="translate(881.914 1920.33)" fill="#652f90"/>
    <path id="Path_1780" data-name="Path 1780" d="M282.4,33.694a3.113,3.113,0,0,1-2.586-1.373L261.272,4.861a3.117,3.117,0,1,1,5.165-3.489l18.546,27.46a3.117,3.117,0,0,1-2.58,4.861" transform="translate(754.57 1920.33)" fill="#652f90"/>
  </g>
</svg>
