<svg xmlns="http://www.w3.org/2000/svg" xmlns:xlink="http://www.w3.org/1999/xlink" width="13.936" height="17.646" viewBox="0 0 13.936 17.646">
  <defs>
    <clipPath id="clip-path">
      <rect id="Rectangle_3148" data-name="Rectangle 3148" width="13.936" height="17.646" fill="#652f90"/>
    </clipPath>
  </defs>
  <g id="Group_2094" data-name="Group 2094" clip-path="url(#clip-path)">
    <path id="Path_1791" data-name="Path 1791" d="M8.047,17.646H2.069A2.071,2.071,0,0,1,0,15.576V2.069A2.072,2.072,0,0,1,2.069,0h9.8a2.071,2.071,0,0,1,2.069,2.069v9.688a5.9,5.9,0,0,1-5.888,5.888M2.069,1.1a.97.97,0,0,0-.969.969V15.576a.97.97,0,0,0,.969.969H8.047a4.794,4.794,0,0,0,4.788-4.788V2.069a.97.97,0,0,0-.969-.969Z" transform="translate(0 0)" fill="#652f90"/>
    <path id="Path_1792" data-name="Path 1792" d="M238.05,347.458a.55.55,0,0,1-.55-.55v-3.327a.892.892,0,0,1,.891-.891H241.9a.55.55,0,0,1,0,1.1h-3.3v3.117a.55.55,0,0,1-.55.55" transform="translate(-228.79 -330.124)" fill="#652f90"/>
    <path id="Path_1793" data-name="Path 1793" d="M59.718,101.1H50.55a.55.55,0,1,1,0-1.1h9.168a.55.55,0,1,1,0,1.1" transform="translate(-48.166 -96.333)" fill="#652f90"/>
    <path id="Path_1794" data-name="Path 1794" d="M59.718,190.94H50.55a.55.55,0,0,1,0-1.1h9.168a.55.55,0,1,1,0,1.1" transform="translate(-48.166 -182.878)" fill="#652f90"/>
    <path id="Path_1795" data-name="Path 1795" d="M59.718,280.78H50.55a.55.55,0,1,1,0-1.1h9.168a.55.55,0,1,1,0,1.1" transform="translate(-48.166 -269.423)" fill="#652f90"/>
    <path id="Path_1796" data-name="Path 1796" d="M55.134,370.62H50.55a.55.55,0,0,1,0-1.1h4.584a.55.55,0,0,1,0,1.1" transform="translate(-48.166 -355.969)" fill="#652f90"/>
  </g>
</svg>
