<svg xmlns="http://www.w3.org/2000/svg" xmlns:xlink="http://www.w3.org/1999/xlink" width="21.215" height="21.215" viewBox="0 0 21.215 21.215">
  <defs>
    <clipPath id="clip-path">
      <rect id="Rectangle_3328" data-name="Rectangle 3328" width="21.215" height="21.215" fill="#3f3f3f"/>
    </clipPath>
  </defs>
  <g id="Group_2175" data-name="Group 2175" clip-path="url(#clip-path)">
    <path id="Path_1865" data-name="Path 1865" d="M10.607,21.215a10.607,10.607,0,0,1-7.5-18.108,10.607,10.607,0,1,1,15,15,10.538,10.538,0,0,1-7.5,3.107m0-19.805a9.2,9.2,0,1,0,9.2,9.2,9.208,9.208,0,0,0-9.2-9.2" transform="translate(0)" fill="#3f3f3f"/>
    <path id="Path_1866" data-name="Path 1866" d="M110.406,111.111a.7.7,0,0,1-.5-.206L99.429,100.426a.7.7,0,1,1,1-1L110.9,109.908a.7.7,0,0,1-.5,1.2" transform="translate(-94.56 -94.56)" fill="#3f3f3f"/>
    <path id="Path_1867" data-name="Path 1867" d="M99.928,111.111a.7.7,0,0,1-.5-1.2l10.479-10.479a.7.7,0,1,1,1,1L100.426,110.9a.7.7,0,0,1-.5.206" transform="translate(-94.56 -94.56)" fill="#3f3f3f"/>
  </g>
</svg>
