<svg xmlns="http://www.w3.org/2000/svg" width="42.397" height="34.015" viewBox="0 0 42.397 34.015">
  <g id="Group_2529" data-name="Group 2529" transform="translate(-48.938 -70.5)">
    <path id="Path_1852" data-name="Path 1852" d="M34.993,11.724A37.342,37.342,0,0,0,46.714,0a37.7,37.7,0,0,0,5.2,6.518,37.249,37.249,0,0,0,6.518,5.206A37.283,37.283,0,0,0,46.714,23.445,37.283,37.283,0,0,0,34.993,11.724" transform="translate(23.422 70.5)" fill="#652f90"/>
    <path id="Path_1853" data-name="Path 1853" d="M103.727,53.159h0A19.618,19.618,0,0,1,84.11,72.776a19.617,19.617,0,0,1,19.617-19.617" transform="translate(-12.393 31.738)" fill="#652f90"/>
    <path id="Path_1854" data-name="Path 1854" d="M0,53.158A19.618,19.618,0,0,1,19.617,72.776,19.618,19.618,0,0,1,0,53.158" transform="translate(48.938 31.739)" fill="#652f90"/>
  </g>
</svg>
