<svg xmlns="http://www.w3.org/2000/svg" width="13" height="13" viewBox="0 0 13 13">
  <path id="iconmonstr-magic-2" d="M2.658,1.127,1.127,2.659,11.468,13,13,11.468,2.658,1.127Zm9.576,10.341-.766.766L3.807,4.574l.766-.766ZM4.745,1.408A2.1,2.1,0,0,1,6.138,2.8,2.1,2.1,0,0,1,7.532,1.408,2.1,2.1,0,0,1,6.138.014,2.1,2.1,0,0,1,4.745,1.408Zm-2.9,3.767A2.78,2.78,0,0,1,0,7.023,2.779,2.779,0,0,1,1.848,8.871,2.78,2.78,0,0,1,3.7,7.023,2.783,2.783,0,0,1,1.848,5.175ZM7.023,3.46a1.482,1.482,0,0,1,.985.986,1.483,1.483,0,0,1,.985-.986,1.483,1.483,0,0,1-.985-.986,1.484,1.484,0,0,1-.985.986ZM9.42,0A1.693,1.693,0,0,1,8.3,1.124,1.694,1.694,0,0,1,9.421,2.25a1.7,1.7,0,0,1,1.123-1.125A1.7,1.7,0,0,1,9.42,0Z" fill="#FFFFFF"/>
</svg>
