<svg xmlns="http://www.w3.org/2000/svg" width="20" height="18" viewBox="0 0 20 18">
  <path id="iconmonstr-pencil-square-lined_1_" data-name="iconmonstr-pencil-square-lined (1)" d="M11.25,6a.772.772,0,0,1,.75.75.75.75,0,0,1-.75.75H3.5v12h17V10.751a.75.75,0,0,1,1.5,0V20a1,1,0,0,1-1,1H3a1,1,0,0,1-1-1V7A1,1,0,0,1,3,6Zm1.521,9.689,9.012-9.012A.763.763,0,0,0,22,6.145a.715.715,0,0,0-.218-.515L19.359,3.215a.742.742,0,0,0-1.045,0l-9.027,9c-.442,1.371-1.158,3.586-1.264,3.952A.641.641,0,0,0,8.595,17C9,17,9.291,16.9,12.771,15.689ZM10.513,13.3l1.17,1.171c-.7.232-1.274.418-1.729.566Zm.968-1.154,7.356-7.331,1.347,1.342L12.838,13.5Z" transform="translate(-2 -3)"/>
</svg>
