<svg xmlns="http://www.w3.org/2000/svg" width="15.291" height="15.291" viewBox="0 0 15.291 15.291">
  <path id="Path_1788" data-name="Path 1788" d="M10.194,11.468H5.1v-.637h5.1Zm-1.274.637H5.1v.637H8.92Zm6.371-7.93v6.3a.99.99,0,0,1-.99.99H12.743V14.3a.99.99,0,0,1-.99.99H3.539a.99.99,0,0,1-.99-.99V11.468H.99a.99.99,0,0,1-.99-.99v-6.3a.99.99,0,0,1,.99-.99H2.549V.99A.99.99,0,0,1,3.539,0h8.214a.99.99,0,0,1,.99.99v2.2H14.3a.99.99,0,0,1,.99.99M3.823,3.186h7.646V1.274H3.823Zm7.646,6.371H3.823v4.46h7.646Zm2.549-5.1H1.274v5.734H2.549V9.273a.99.99,0,0,1,.99-.99h8.214a.99.99,0,0,1,.99.99v.921h1.274Zm-.956.637a.319.319,0,1,0,.319.319.319.319,0,0,0-.319-.319" fill="#652f90"/>
</svg>
