<svg xmlns="http://www.w3.org/2000/svg" xmlns:xlink="http://www.w3.org/1999/xlink" width="151.936" height="46.5" viewBox="0 0 151.936 46.5">
  <defs>
    <clipPath id="clip-path">
      <rect id="Rectangle_2754" data-name="Rectangle 2754" width="151.936" height="46.5" fill="none"/>
    </clipPath>
  </defs>
  <g id="Group_2006" data-name="Group 2006" clip-path="url(#clip-path)">
    <path id="Path_1699" data-name="Path 1699" d="M53.373,20.312a9.341,9.341,0,0,0-.243-1.29,9.748,9.748,0,0,0-7.045-6.972,10.645,10.645,0,0,0-1.25-.23,12.145,12.145,0,0,0-3.938.2,18.043,18.043,0,0,0-1.837.483,45.326,45.326,0,0,1-4.872,1.464,6.459,6.459,0,0,1-4.653-.412,5.6,5.6,0,0,0-2.814-.581A11.409,11.409,0,0,0,22.288,14a.547.547,0,0,1-.742-.18A9.077,9.077,0,0,0,19.6,12.113c-1.2-.769-1.966-.413-2.16,1a2.781,2.781,0,0,0-.059.554q.021.32.055.637.069.671.195,1.33A13.61,13.61,0,0,0,17.958,17c.031.106.063.211.1.316a1.136,1.136,0,0,1-.071.935c-.019.04-.042.081-.066.121a30.225,30.225,0,0,1-1.8,2.59A10.142,10.142,0,0,1,11.491,24.5c-1.5.552-3.026,1-4.57,1.405a1.112,1.112,0,0,1-.472.063.138.138,0,0,1-.051-.023c-.094-.063-.1-.229-.062-.547.006-.057.013-.115.018-.172.082-.769.129-1.539.259-2.3a20.343,20.343,0,0,1,5.428-10.8,20.358,20.358,0,0,1,17.05-6.16,19.926,19.926,0,0,1,10.174,4.205c.133.1.25.265.437.226.6-.127,1.2-.22,1.821-.306.342-.048.689-.093,1.045-.14a4.5,4.5,0,0,0-.645-.689c-.212-.189-.431-.359-.642-.537A22.632,22.632,0,0,0,30.968,3.8c-.828-.164-1.667-.274-2.5-.408H24.692c-.156.1-.331.039-.5.049a17.471,17.471,0,0,0-2.7.246,22.708,22.708,0,0,0-10.767,5.8A23.036,23.036,0,0,0,5.354,17.2,16.379,16.379,0,0,0,4,21.681c-.11.906-.112,1.821-.23,2.726v3.774c.105.175.039.364.05.546a22.934,22.934,0,0,0,.19,2.444s0,0,0,0c.02.124.045.246.072.368A22.59,22.59,0,0,0,9.846,42.218a22.98,22.98,0,0,0,8.013,5.489,16.761,16.761,0,0,0,4.927,1.331c.872.076,1.748.072,2.62.16h2.551c.128-.114.288-.084.437-.094a22.731,22.731,0,0,0,16.677-9.117,21.869,21.869,0,0,0,3.706-7.751c.064-.247.124-.5.18-.747.028-.126.132-.285.028-.386s-.189-.05-.279.008a1.23,1.23,0,0,1-.129.08c-.7.343-1.391.705-2.1,1.042a.829.829,0,0,0-.473.552,15.51,15.51,0,0,1-.982,2.4,20.466,20.466,0,0,1-10.437,9.928,18.979,18.979,0,0,1-6.334,1.542l-.119.007c-.159.01-.367.079-.466-.1a.171.171,0,0,1-.024-.109c.011-.106.12-.2.18-.293s.106-.17.16-.255a50,50,0,0,1,4.141-5.484,30.3,30.3,0,0,1,9.732-7.831c1.516-.747,3.04-1.479,4.553-2.231q.856-.424,1.708-.859a14.968,14.968,0,0,0,1.662-.979,8.765,8.765,0,0,0,2.329-2.271,7.736,7.736,0,0,0,1.33-4.007,11.022,11.022,0,0,0-.066-1.934M30.226,19.029a1.8,1.8,0,0,1-1.676,1.213,1.859,1.859,0,0,1-1.708-1.213,1.668,1.668,0,0,1-.107-.6v-.012a1.872,1.872,0,0,1,1.85-1.773,1.817,1.817,0,0,1,1.74,1.817,1.715,1.715,0,0,1-.1.571" transform="translate(-3.385 -3.044)" fill="#9fce52"/>
    <path id="Path_1700" data-name="Path 1700" d="M1340.729,152.47a7.185,7.185,0,0,0-4.349-5.855,10.259,10.259,0,0,0-6.152-.5,6.9,6.9,0,0,0-5.293,4.025,10.181,10.181,0,0,0-.328,7.452,6.622,6.622,0,0,0,3.815,4.267,10.223,10.223,0,0,0,7.514.235,6.852,6.852,0,0,0,4.193-3.9,17.6,17.6,0,0,0,.72-2.583v-2.652c-.131-.139-.094-.32-.121-.484m-5.191,4.61a3.229,3.229,0,0,1-2.933,2.016,3.086,3.086,0,0,1-3.138-1.92,6.656,6.656,0,0,1,.213-6.2,3.308,3.308,0,0,1,5.732.242,6.189,6.189,0,0,1,.665,3.03,6.091,6.091,0,0,1-.539,2.834" transform="translate(-1188.915 -130.978)" fill="#9fce52"/>
    <path id="Path_1701" data-name="Path 1701" d="M982.734,150.859a7.307,7.307,0,0,0-4.61-6.064,6.351,6.351,0,0,0-5.641.361,8.267,8.267,0,0,0-1.6,1.4l-.137-.041c0-.316,0-.634,0-.95-.013-.751-.285-1.107-1.035-1.2a13.656,13.656,0,0,0-2.748-.016,1.113,1.113,0,0,0-1.042,1.017,3.332,3.332,0,0,0-.053.759q0,9.789,0,19.578a4.464,4.464,0,0,0,.014.56,1.192,1.192,0,0,0,1.289,1.162q1.173.017,2.346,0a1.111,1.111,0,0,0,1.23-1.232c.006-.918,0-1.835,0-2.753q0-1.938,0-3.876c0-.113-.046-.263.071-.328.137-.077.21.07.283.152a5.889,5.889,0,0,0,5.138,1.938,6.51,6.51,0,0,0,5.513-3.485,10.384,10.384,0,0,0,.981-6.976m-5.386,5.036a3.169,3.169,0,0,1-2.825,1.777A3.118,3.118,0,0,1,971.536,156a6.672,6.672,0,0,1,.325-6.8,3.3,3.3,0,0,1,5.342.333,7.3,7.3,0,0,1,.145,6.357" transform="translate(-867.279 -129.554)" fill="#9fce52"/>
    <path id="Path_1702" data-name="Path 1702" d="M1161.522,151.351a8.421,8.421,0,0,0-1.664-4.105,6.7,6.7,0,0,0-4.949-2.677,5.85,5.85,0,0,0-4.793,1.644c-.172.167-.273.561-.529.45-.205-.091-.081-.466-.085-.715a1.27,1.27,0,0,0-1.446-1.432q-.994-.014-1.989,0c-1.021.016-1.442.451-1.443,1.48q0,5.049,0,10.1,0,5.075,0,10.149c0,.949.429,1.378,1.36,1.383.732,0,1.463.008,2.193,0,.907-.013,1.312-.41,1.316-1.316.01-2.058,0-4.114,0-6.171,0-.153,0-.306.006-.459.005-.1-.018-.231.11-.249.059-.009.146.07.2.13a5.848,5.848,0,0,0,4.917,1.977,6.494,6.494,0,0,0,5.8-3.6,10.556,10.556,0,0,0,.99-6.585m-5.692,5.163a3.331,3.331,0,0,1-5.789-.719,6.7,6.7,0,0,1-.537-2.776,5.886,5.886,0,0,1,.946-3.422,3.309,3.309,0,0,1,5.267-.165,6.812,6.812,0,0,1,.113,7.082" transform="translate(-1027.794 -129.759)" fill="#9fce52"/>
    <path id="Path_1703" data-name="Path 1703" d="M732.954,92.953c.049-.019.106-.025.134-.056,1.417-1.582,3.209-1.724,5.145-1.361a4.547,4.547,0,0,1,3.65,2.826,8.748,8.748,0,0,1,.6,2.875c.16,2.938.032,5.878.073,8.817.005.357.011.714,0,1.071a1.156,1.156,0,0,1-1.283,1.247q-1.173.01-2.347,0a1.1,1.1,0,0,1-1.244-1.257c0-3.128,0-6.256,0-9.384a2.422,2.422,0,0,0-1.564-2.5,2.336,2.336,0,0,0-3.239,2.037c-.029,3.026-.009,6.052-.009,9.078a6,6,0,0,1-.066.964,1.079,1.079,0,0,1-1.185,1.06q-1.25.017-2.5,0a1.023,1.023,0,0,1-1.144-.982,3.572,3.572,0,0,1-.057-.656q0-9.894,0-19.787a2.4,2.4,0,0,1,.071-.706,1.139,1.139,0,0,1,1.181-.923q1.224-.017,2.449,0a1.122,1.122,0,0,1,1.183,1.03,9.708,9.708,0,0,1,.067,1.779c.008,1.411,0,2.822.006,4.233,0,.194-.059.405.089.6" transform="translate(-653.612 -76.6)" fill="#9fce52"/>
    <path id="Path_1704" data-name="Path 1704" d="M565.26,157.71c.425,0,.851.009,1.276,0a1.047,1.047,0,0,1,1.059.722,2.3,2.3,0,0,0,2.457,1.656,4.6,4.6,0,0,0,1.562-.172,1.2,1.2,0,0,0,.9-.876,1.27,1.27,0,0,0-.531-1.342,6.271,6.271,0,0,0-2.308-.9,24.315,24.315,0,0,1-4.406-1.2,3.862,3.862,0,0,1-2.425-3.572c-.136-2.631,1.357-4.175,3.988-4.788a12.564,12.564,0,0,1,6.551.1,4.76,4.76,0,0,1,3.66,3.944,1.1,1.1,0,0,1-1.177,1.435c-.765.007-1.531-.015-2.3.007a1.023,1.023,0,0,1-1.118-.708c-.581-1.928-2.713-1.894-4.1-1.451a1.058,1.058,0,0,0-.851,1.072,1.172,1.172,0,0,0,.867,1.076,20.338,20.338,0,0,0,3.254.815,12.433,12.433,0,0,1,3.515,1.3,4.433,4.433,0,0,1-.373,7.71,10.651,10.651,0,0,1-6.109.914,7.434,7.434,0,0,1-4.078-1.568,4.166,4.166,0,0,1-1.721-3.054.969.969,0,0,1,1.029-1.119c.458-.023.918,0,1.378,0Z" transform="translate(-505.389 -131.863)" fill="#9fce52"/>
    <path id="Path_1705" data-name="Path 1705" d="M899.555,153.033q0,3.494,0,6.987c0,1.169-.355,1.522-1.516,1.523-.731,0-1.463.006-2.194,0a1.081,1.081,0,0,1-1.161-1.037,4.626,4.626,0,0,1-.026-.611q0-6.809,0-13.617c0-1.381.37-1.749,1.755-1.751.578,0,1.157-.009,1.734,0,.965.022,1.4.459,1.406,1.417.006,2.363,0,4.726,0,7.089" transform="translate(-803.341 -129.769)" fill="#9fce52"/>
    <path id="Path_1706" data-name="Path 1706" d="M899.485,87.768c0,.408.015.817,0,1.224a1.136,1.136,0,0,1-1.2,1.177c-.8.012-1.6.014-2.4,0a1.149,1.149,0,0,1-1.283-1.256q-.029-1.172,0-2.346a1.177,1.177,0,0,1,1.288-1.263c.782-.012,1.565-.014,2.347,0a1.166,1.166,0,0,1,1.251,1.24c.014.408,0,.816,0,1.224" transform="translate(-803.273 -76.588)" fill="#9fce52"/>
    <path id="Path_1707" data-name="Path 1707" d="M42.439,10.11q-.468-.683-.989-1.334a12.145,12.145,0,0,0-3.938.2q.487.485.939,1A20.177,20.177,0,0,1,43.192,26.4c-.048.308-.1.613-.166.917q.856-.424,1.708-.859a14.968,14.968,0,0,0,1.662-.979c.029-.3.052-.609.068-.917q.037-.654.037-1.314a23.086,23.086,0,0,0-4.061-13.14m.587,18.374-.32.158A20.235,20.235,0,0,1,25.036,43.359q-.386.034-.777.053-.5.026-1.009.026A20.212,20.212,0,0,1,3.08,24.1q-.018-.421-.018-.846c0-.108,0-.215,0-.323,0-.252.012-.5.026-.753,0-.051.005-.1.009-.153A20.177,20.177,0,0,1,36.841,8.336a14.176,14.176,0,0,1,2.27-.36,11.5,11.5,0,0,1,1.667,0q-.521-.6-1.088-1.164-.335-.335-.681-.654A23.259,23.259,0,0,0,.336,19.274,23.642,23.642,0,0,0,.5,28.068,23.256,23.256,0,0,0,39.69,39.69a23.071,23.071,0,0,0,6.55-12.94,15.279,15.279,0,0,1-1.507.875q-.851.436-1.708.859" fill="#9fce52"/>
  </g>
</svg>
