<svg xmlns="http://www.w3.org/2000/svg" xmlns:xlink="http://www.w3.org/1999/xlink" width="22.272" height="22.272" viewBox="0 0 22.272 22.272">
  <defs>
    <clipPath id="clip-path">
      <rect id="Rectangle_3330" data-name="Rectangle 3330" width="22.272" height="22.272" fill="#3f3f3f"/>
    </clipPath>
  </defs>
  <g id="Group_2176" data-name="Group 2176" clip-path="url(#clip-path)">
    <path id="Path_1868" data-name="Path 1868" d="M11.136,22.272A11.136,11.136,0,0,1,3.262,3.262,11.136,11.136,0,0,1,19.01,19.01a11.063,11.063,0,0,1-7.874,3.262m0-20.792a9.656,9.656,0,1,0,9.656,9.656A9.667,9.667,0,0,0,11.136,1.48" fill="#3f3f3f"/>
    <path id="Path_1869" data-name="Path 1869" d="M116.387,122.061a5.674,5.674,0,1,1,5.674-5.674,5.68,5.68,0,0,1-5.674,5.674m0-9.867a4.194,4.194,0,1,0,4.194,4.194,4.2,4.2,0,0,0-4.194-4.194" transform="translate(-105.251 -105.251)" fill="#3f3f3f"/>
    <path id="Path_1870" data-name="Path 1870" d="M63.485,294.768a.74.74,0,0,1-.523-1.263l3.394-3.394a.74.74,0,0,1,1.047,1.047l-3.394,3.394a.738.738,0,0,1-.523.217" transform="translate(-59.649 -275.591)" fill="#3f3f3f"/>
    <path id="Path_1871" data-name="Path 1871" d="M288.294,289.034a.738.738,0,0,1-.523-.217l-3.59-3.59a.74.74,0,0,1,1.047-1.047l3.59,3.59a.74.74,0,0,1-.523,1.263" transform="translate(-269.954 -269.954)" fill="#3f3f3f"/>
    <path id="Path_1872" data-name="Path 1872" d="M116.9,124.454a.74.74,0,1,1,0-1.48,3.988,3.988,0,0,0,3.04-1.065,3.825,3.825,0,0,0,.887-2.591.74.74,0,1,1,1.476-.111,5.289,5.289,0,0,1-1.268,3.7,5.378,5.378,0,0,1-4.135,1.549" transform="translate(-110.431 -112.675)" fill="#3f3f3f"/>
    <path id="Path_1873" data-name="Path 1873" d="M215.069,124.583a5.346,5.346,0,0,1-4.106-1.546,5.444,5.444,0,0,1-1.3-3.8.74.74,0,0,1,1.476.109,3.457,3.457,0,0,0,3.927,3.754.74.74,0,0,1,0,1.48" transform="translate(-199.315 -112.707)" fill="#3f3f3f"/>
    <path id="Path_1874" data-name="Path 1874" d="M201.435,100.561c0,.519-.6.94-1.329.94s-1.329-.421-1.329-.94.6-.94,1.329-.94,1.329.421,1.329.94" transform="translate(-188.97 -94.706)" fill="#3f3f3f"/>
  </g>
</svg>
