<svg xmlns="http://www.w3.org/2000/svg" xmlns:xlink="http://www.w3.org/1999/xlink" width="17.343" height="22.387" viewBox="0 0 17.343 22.387">
  <defs>
    <clipPath id="clip-path">
      <rect id="Rectangle_3322" data-name="Rectangle 3322" width="17.343" height="22.387" fill="#3f3f3f"/>
    </clipPath>
  </defs>
  <g id="Group_2163" data-name="Group 2163" clip-path="url(#clip-path)">
    <path id="Path_1845" data-name="Path 1845" d="M14.316,139.518H3.027a1.984,1.984,0,0,1-1.418-.6L.555,137.828A1.963,1.963,0,0,1,0,136.455V125.183a1.976,1.976,0,0,1,1.973-1.973h13.4a1.976,1.976,0,0,1,1.973,1.973v11.272a1.964,1.964,0,0,1-.555,1.373l-1.054,1.089a1.984,1.984,0,0,1-1.418.6M1.973,124.69a.494.494,0,0,0-.493.493v11.272a.491.491,0,0,0,.139.343l1.054,1.089a.5.5,0,0,0,.354.15H14.316a.5.5,0,0,0,.355-.15l1.054-1.089a.491.491,0,0,0,.139-.343V125.183a.494.494,0,0,0-.493-.493Z" transform="translate(0 -117.131)" fill="#3f3f3f"/>
    <path id="Path_1846" data-name="Path 1846" d="M93.076,13a.74.74,0,0,1-.74-.74V1.973a.494.494,0,0,0-.493-.493H86.836a.494.494,0,0,0-.493.493V12.257a.74.74,0,0,1-1.48,0V1.973A1.976,1.976,0,0,1,86.836,0h5.006a1.976,1.976,0,0,1,1.973,1.973V12.257a.74.74,0,0,1-.74.74" transform="translate(-80.676)" fill="#3f3f3f"/>
  </g>
</svg>
