<svg xmlns="http://www.w3.org/2000/svg" xmlns:xlink="http://www.w3.org/1999/xlink" width="109" height="108" viewBox="0 0 109 108">
  <defs>
    <clipPath id="clip-path">
      <rect id="Rectangle_3119" data-name="Rectangle 3119" width="74.684" height="75.143" fill="#fff"/>
    </clipPath>
  </defs>
  <g id="Group_2531" data-name="Group 2531" transform="translate(-806 -2109)">
    <ellipse id="Ellipse_775" data-name="Ellipse 775" cx="54.5" cy="54" rx="54.5" ry="54" transform="translate(806 2109)" fill="#84a98c"/>
    <g id="Group_2234" data-name="Group 2234" transform="translate(823 2125)">
      <g id="Group_2233" data-name="Group 2233" clip-path="url(#clip-path)">
        <path id="Path_1803" data-name="Path 1803" d="M22.671,45.342A22.671,22.671,0,1,1,45.342,22.671,22.7,22.7,0,0,1,22.671,45.342m0-40.312A17.641,17.641,0,1,0,40.312,22.671,17.661,17.661,0,0,0,22.671,5.03" transform="translate(0 0)" fill="#fff"/>
        <path id="Path_1804" data-name="Path 1804" d="M257.869,226.028a17.163,17.163,0,1,1,17.163-17.163,17.182,17.182,0,0,1-17.163,17.163m0-29.3A12.133,12.133,0,1,0,270,208.865a12.147,12.147,0,0,0-12.133-12.133" transform="translate(-200.347 -159.56)" fill="#fff"/>
        <path id="Path_1805" data-name="Path 1805" d="M115.2,333.732a11.526,11.526,0,1,1,11.526-11.526A11.539,11.539,0,0,1,115.2,333.732m0-18.022a6.5,6.5,0,1,0,6.5,6.5,6.5,6.5,0,0,0-6.5-6.5" transform="translate(-86.295 -258.589)" fill="#fff"/>
      </g>
    </g>
  </g>
</svg>
