<svg xmlns="http://www.w3.org/2000/svg" xmlns:xlink="http://www.w3.org/1999/xlink" width="8.675" height="9.658" viewBox="0 0 8.675 9.658">
  <defs>
    <clipPath id="clip-path">
      <rect id="Rectangle_3360" data-name="Rectangle 3360" width="8.675" height="9.658" fill="#3f3f3f"/>
    </clipPath>
  </defs>
  <g id="Group_2520" data-name="Group 2520" clip-path="url(#clip-path)">
    <path id="Path_1936" data-name="Path 1936" d="M7.837,1.917H6.228A1.21,1.21,0,0,0,4.338.411,1.21,1.21,0,0,0,2.447,1.917H.838A.839.839,0,0,0,0,2.755V4.267a.839.839,0,0,0,.5.768V8.82a.839.839,0,0,0,.838.838H7.393a.839.839,0,0,0,.838-.838V5.006a.839.839,0,0,0,.444-.739V2.755a.839.839,0,0,0-.838-.838m-3.8,7.136H1.342A.233.233,0,0,1,1.11,8.82V5.1H4.035Zm0-4.553H.838a.233.233,0,0,1-.233-.233V2.755a.233.233,0,0,1,.233-.233h3.2Zm0-2.683H3.43a.605.605,0,1,1,.605-.605Zm.605-.605a.605.605,0,1,1,.605.605H4.64ZM7.626,8.82a.233.233,0,0,1-.233.233H4.64V5.1H7.626ZM8.07,4.267a.233.233,0,0,1-.233.233H4.64V2.522h3.2a.233.233,0,0,1,.233.233Z" fill="#3f3f3f"/>
  </g>
</svg>
