<svg xmlns="http://www.w3.org/2000/svg" xmlns:xlink="http://www.w3.org/1999/xlink" width="109" height="108" viewBox="0 0 109 108">
  <defs>
    <clipPath id="clip-path">
      <rect id="Rectangle_3116" data-name="Rectangle 3116" width="87.058" height="87.058" fill="#fff"/>
    </clipPath>
  </defs>
  <g id="Group_2533" data-name="Group 2533" transform="translate(-220 -6268)">
    <ellipse id="Ellipse_775" data-name="Ellipse 775" cx="54.5" cy="54" rx="54.5" ry="54" transform="translate(220 6268)" fill="#957fef"/>
    <g id="Group_2223" data-name="Group 2223" transform="translate(231.662 6279)">
      <g id="Group_2222" data-name="Group 2222" transform="translate(0 0)" clip-path="url(#clip-path)">
        <path id="Path_1792" data-name="Path 1792" d="M43.529,87.058a43.529,43.529,0,0,1-30.78-74.308A43.529,43.529,0,0,1,74.309,74.309a43.245,43.245,0,0,1-30.78,12.749m0-81.272A37.743,37.743,0,1,0,81.272,43.529,37.786,37.786,0,0,0,43.529,5.786" fill="#fff"/>
        <path id="Path_1793" data-name="Path 1793" d="M113.682,171.425,96.191,153.934a2.893,2.893,0,0,1,4.091-4.091l13.4,13.4,27.007-27.007a2.893,2.893,0,0,1,4.091,4.091Z" transform="translate(-76.957 -109.279)" fill="#fff"/>
      </g>
    </g>
  </g>
</svg>
