<svg id="Group_2020" data-name="Group 2020" xmlns="http://www.w3.org/2000/svg" xmlns:xlink="http://www.w3.org/1999/xlink" width="70.723" height="70.724" viewBox="0 0 70.723 70.724">
  <defs>
    <clipPath id="clip-path">
      <rect id="Rectangle_2759" data-name="Rectangle 2759" width="70.723" height="70.724" fill="#84a98c"/>
    </clipPath>
  </defs>
  <g id="Group_2019" data-name="Group 2019" clip-path="url(#clip-path)">
    <path id="Path_1710" data-name="Path 1710" d="M35.362,70.724a35.362,35.362,0,0,1-25-60.366A35.362,35.362,0,0,1,60.366,60.366a35.131,35.131,0,0,1-25,10.357m0-66.024A30.662,30.662,0,1,0,66.023,35.362,30.7,30.7,0,0,0,35.362,4.7" transform="translate(0 0)" fill="#84a98c"/>
    <path id="Path_1711" data-name="Path 1711" d="M128.73,146.746a18.017,18.017,0,1,1,18.017-18.017,18.037,18.037,0,0,1-18.017,18.017m0-31.333a13.317,13.317,0,1,0,13.317,13.317,13.332,13.332,0,0,0-13.317-13.317" transform="translate(-93.368 -93.368)" fill="#84a98c"/>
    <path id="Path_1712" data-name="Path 1712" d="M65.094,305.371a2.35,2.35,0,0,1-1.662-4.012L74.21,290.582a2.35,2.35,0,0,1,3.323,3.323L66.756,304.682a2.343,2.343,0,0,1-1.662.688" transform="translate(-52.915 -244.477)" fill="#84a98c"/>
    <path id="Path_1713" data-name="Path 1713" d="M297.713,300.063a2.342,2.342,0,0,1-1.662-.688l-11.4-11.4a2.35,2.35,0,1,1,3.323-3.323l11.4,11.4a2.35,2.35,0,0,1-1.662,4.012" transform="translate(-239.476 -239.476)" fill="#84a98c"/>
    <path id="Path_1714" data-name="Path 1714" d="M118.512,137.358a2.35,2.35,0,1,1,0-4.7c4.309,0,7.557-1.138,9.652-3.381,3.112-3.332,2.82-8.179,2.817-8.228a2.35,2.35,0,1,1,4.687-.353c.022.279.477,6.877-4.026,11.743-3.021,3.264-7.438,4.919-13.13,4.919" transform="translate(-97.963 -99.954)" fill="#84a98c"/>
    <path id="Path_1715" data-name="Path 1715" d="M226.838,137.694c-5.632,0-10.019-1.652-13.039-4.911-4.6-4.961-4.139-11.768-4.117-12.055a2.35,2.35,0,0,1,4.687.346c-.005.079-.294,5.122,2.9,8.542,2.1,2.241,5.314,3.377,9.565,3.377a2.35,2.35,0,0,1,0,4.7" transform="translate(-176.812 -99.983)" fill="#84a98c"/>
    <path id="Path_1716" data-name="Path 1716" d="M207.217,102.606c0,1.648-1.889,2.985-4.22,2.985s-4.22-1.336-4.22-2.985,1.889-2.985,4.22-2.985,4.22,1.336,4.22,2.985" transform="translate(-167.635 -84.014)" fill="#84a98c"/>
  </g>
</svg>
