<svg xmlns="http://www.w3.org/2000/svg" xmlns:xlink="http://www.w3.org/1999/xlink" width="31.677" height="31.677" viewBox="0 0 31.677 31.677">
  <defs>
    <clipPath id="clip-path">
      <rect id="Rectangle_3254" data-name="Rectangle 3254" width="31.677" height="31.677" fill="#652f90"/>
    </clipPath>
  </defs>
  <g id="Group_2438" data-name="Group 2438" clip-path="url(#clip-path)">
    <path id="Path_1924" data-name="Path 1924" d="M15.839,31.677A15.839,15.839,0,0,1,4.639,4.639a15.839,15.839,0,0,1,22.4,22.4,15.735,15.735,0,0,1-11.2,4.639m0-29.572A13.734,13.734,0,1,0,29.572,15.839,13.749,13.749,0,0,0,15.839,2.105" fill="#652f90"/>
    <path id="Path_1925" data-name="Path 1925" d="M118.783,126.852a8.07,8.07,0,1,1,8.07-8.07,8.079,8.079,0,0,1-8.07,8.07m0-14.034a5.965,5.965,0,1,0,5.965,5.965,5.971,5.971,0,0,0-5.965-5.965" transform="translate(-102.944 -102.944)" fill="#652f90"/>
    <path id="Path_1926" data-name="Path 1926" d="M63.8,296.826a1.053,1.053,0,0,1-.744-1.8L67.88,290.2a1.053,1.053,0,0,1,1.489,1.489l-4.827,4.827a1.049,1.049,0,0,1-.744.308" transform="translate(-58.342 -269.551)" fill="#652f90"/>
    <path id="Path_1927" data-name="Path 1927" d="M290.122,291.175a1.049,1.049,0,0,1-.744-.308l-5.106-5.106a1.053,1.053,0,0,1,1.489-1.489l5.106,5.106a1.053,1.053,0,0,1-.744,1.8" transform="translate(-264.037 -264.037)" fill="#652f90"/>
  </g>
</svg>
