<svg id="Group_2241" data-name="Group 2241" xmlns="http://www.w3.org/2000/svg" xmlns:xlink="http://www.w3.org/1999/xlink" width="70.724" height="70.724" viewBox="0 0 70.724 70.724">
  <defs>
    <clipPath id="clip-path">
      <rect id="Rectangle_2761" data-name="Rectangle 2761" width="70.724" height="70.724" fill="#652f90"/>
    </clipPath>
  </defs>
  <g id="Group_2023" data-name="Group 2023" clip-path="url(#clip-path)">
    <path id="Path_1722" data-name="Path 1722" d="M35.362,70.724a35.362,35.362,0,0,1-25-60.367A35.362,35.362,0,1,1,60.366,60.366a35.131,35.131,0,0,1-25,10.357m0-66.024A30.662,30.662,0,1,0,66.024,35.362,30.7,30.7,0,0,0,35.362,4.7" fill="#652f90"/>
    <path id="Path_1723" data-name="Path 1723" d="M131.041,228.75a17.607,17.607,0,0,1-17.587-17.587v-1.241a5.218,5.218,0,0,1,5.212-5.212h24.75a5.218,5.218,0,0,1,5.212,5.212v1.241a17.607,17.607,0,0,1-17.587,17.587m-12.375-19.34a.513.513,0,0,0-.512.512v1.241a12.887,12.887,0,0,0,25.775,0v-1.241a.513.513,0,0,0-.512-.512Z" transform="translate(-95.68 -172.639)" fill="#652f90"/>
    <path id="Path_1724" data-name="Path 1724" d="M202.44,349.874h-5.056a2.257,2.257,0,0,1-2.257-2.257v-.037H204.7v.037a2.257,2.257,0,0,1-2.257,2.257" transform="translate(-164.557 -293.126)" fill="#652f90"/>
    <path id="Path_1725" data-name="Path 1725" d="M157.942,110.228a5.47,5.47,0,0,1-3.88-1.6l-4.228-4.228a5.487,5.487,0,0,1,7.76-7.76l4.228,4.228a5.485,5.485,0,0,1-3.88,9.365m-4.228-10.5a.787.787,0,0,0-.557,1.344l4.228,4.228a.787.787,0,1,0,1.113-1.113l-4.228-4.228a.785.785,0,0,0-.557-.23" transform="translate(-125.006 -80.143)" fill="#652f90"/>
  </g>
</svg>
