<svg xmlns="http://www.w3.org/2000/svg" xmlns:xlink="http://www.w3.org/1999/xlink" width="109" height="108" viewBox="0 0 109 108">
  <defs>
    <clipPath id="clip-path">
      <rect id="Rectangle_3117" data-name="Rectangle 3117" width="86.354" height="86.354" fill="#fff"/>
    </clipPath>
  </defs>
  <g id="Group_2534" data-name="Group 2534" transform="translate(-713 -6267)">
    <ellipse id="Ellipse_776" data-name="Ellipse 776" cx="54.5" cy="54" rx="54.5" ry="54" transform="translate(713 6267)" fill="#efd9ce"/>
    <g id="Group_2224" data-name="Group 2224" transform="translate(723.984 6277.823)" clip-path="url(#clip-path)">
      <path id="Path_1794" data-name="Path 1794" d="M43.177,86.354A43.177,43.177,0,0,1,12.646,12.646,43.177,43.177,0,0,1,73.708,73.708,42.9,42.9,0,0,1,43.177,86.354m0-80.615A37.438,37.438,0,1,0,80.615,43.177,37.481,37.481,0,0,0,43.177,5.739" fill="#fff"/>
      <path id="Path_1795" data-name="Path 1795" d="M132.712,154.71a22,22,0,1,1,22-22,22.023,22.023,0,0,1-22,22m0-38.258a16.26,16.26,0,1,0,16.26,16.26,16.278,16.278,0,0,0-16.26-16.26" transform="translate(-89.535 -89.535)" fill="#fff"/>
      <path id="Path_1796" data-name="Path 1796" d="M65.614,308.791a2.869,2.869,0,0,1-2.029-4.9l13.159-13.159a2.869,2.869,0,1,1,4.058,4.058L67.643,307.951a2.86,2.86,0,0,1-2.029.841" transform="translate(-50.742 -234.439)" fill="#fff"/>
      <path id="Path_1797" data-name="Path 1797" d="M300.752,303.621a2.86,2.86,0,0,1-2.029-.84L284.8,288.862a2.869,2.869,0,1,1,4.058-4.058l13.919,13.919a2.869,2.869,0,0,1-2.029,4.9" transform="translate(-229.644 -229.644)" fill="#fff"/>
      <path id="Path_1798" data-name="Path 1798" d="M119.031,141.52a2.869,2.869,0,1,1,0-5.739c5.261,0,9.227-1.389,11.785-4.128,3.8-4.069,3.444-9.987,3.44-10.046a2.869,2.869,0,1,1,5.722-.431c.026.34.582,8.4-4.916,14.338-3.688,3.986-9.082,6.006-16.032,6.006" transform="translate(-93.941 -95.85)" fill="#fff"/>
      <path id="Path_1799" data-name="Path 1799" d="M230.634,141.924c-6.876,0-12.233-2.017-15.921-6-5.614-6.057-5.054-14.368-5.027-14.719a2.869,2.869,0,0,1,5.723.423c-.006.1-.359,6.254,3.545,10.43,2.558,2.736,6.488,4.123,11.68,4.123a2.869,2.869,0,0,1,0,5.739" transform="translate(-169.553 -95.878)" fill="#fff"/>
      <path id="Path_1800" data-name="Path 1800" d="M209.082,103.265c0,2.013-2.307,3.644-5.153,3.644s-5.153-1.632-5.153-3.644,2.307-3.644,5.153-3.644,5.153,1.632,5.153,3.644" transform="translate(-160.753 -80.564)" fill="#fff"/>
    </g>
  </g>
</svg>
